<svg width="73" height="86" viewBox="0 0 73 86" fill="none" xmlns="http://www.w3.org/2000/svg">
<path d="M0 0L36.5 86L73 0L36.5 25.4266L0 0Z" fill="#F96314"/>
<path fill-rule="evenodd" clip-rule="evenodd" d="M36.5 29.8174L8.1975 10.1013L36.5 76.7867L64.8025 10.1013L36.5 29.8174ZM73 0L36.5 86L0 0L36.5 25.4266L73 0Z" fill="black"/>
<path d="M42.412 67.5254H30.3953L36.5 82.5239L42.412 67.5254Z" fill="black"/>
<path fill-rule="evenodd" clip-rule="evenodd" d="M30.2996 67.4612H42.5063L36.5009 82.6969L30.2996 67.4612ZM30.4908 67.5899L36.4989 82.3512L42.3174 67.5899H30.4908Z" fill="black"/>
<path fill-rule="evenodd" clip-rule="evenodd" d="M59.5053 29.9971H13.559V26.3923H59.5053V29.9971Z" fill="black"/>
<path d="M27.2465 43.1931L21.1417 34.1167H33.544L27.2465 43.1931Z" fill="black"/>
<path d="M44.4041 43.1931L38.2993 34.1167H50.7016L44.4041 43.1931Z" fill="black"/>
</svg>
